<svg xmlns="http://www.w3.org/2000/svg" viewBox="100 0 400 400" width="128" height="128">
  <rect x="100" y="0" width="400" height="400" rx="32" ry="32" fill="#2d2d2d"/>
  <g opacity="0.3" stroke="#a0a0a0" stroke-width="3" fill="none"
     transform="rotate(15, 300, 200) translate(65, 35)">
    <path d="M 300.0 486.7 C 325.3 486.7, 352.3 481.9, 375.9 473.7 C 399.6 465.4, 422.7 452.2, 441.8 437.2 C 460.9 422.2, 477.6 403.1, 490.4 383.9 C 503.3 364.7, 512.6 342.9, 518.8 322.0 C 525.1 301.2, 527.6 279.3, 527.8 258.9 C 528.0 238.6, 524.8 218.4, 520.0 200.0 C 515.2 181.6, 507.7 164.1, 499.2 148.5 C 490.6 132.8, 480.0 118.5, 468.7 105.9 C 457.4 93.3, 444.6 82.4, 431.5 73.0 C 418.4 63.6, 404.2 55.9, 389.9 49.7 C 375.5 43.5, 360.5 38.9, 345.6 35.8 C 330.6 32.7, 315.2 31.2, 300.0 31.2 C 284.8 31.2, 269.4 32.7, 254.4 35.8 C 239.5 38.9, 224.5 43.5, 210.1 49.7 C 195.8 55.9, 181.6 63.6, 168.5 73.0 C 155.4 82.4, 142.6 93.3, 131.3 105.9 C 120.0 118.5, 109.4 132.8, 100.8 148.5 C 92.3 164.1, 84.8 181.6, 80.0 200.0 C 75.2 218.4, 72.0 238.6, 72.2 258.9 C 72.4 279.3, 74.9 301.2, 81.2 322.0 C 87.4 342.9, 96.7 364.7, 109.6 383.9 C 122.4 403.1, 139.1 422.2, 158.2 437.2 C 177.3 452.2, 200.4 465.4, 224.1 473.7 Z"/>
    <path d="M 300.0 486.7 C 300.0 475.1, 300.0 464.6, 300.0 454.6 C 300.0 444.5, 300.0 435.3, 300.0 426.5 C 300.0 417.7, 300.0 409.5, 300.0 401.6 C 300.0 393.7, 300.0 386.3, 300.0 379.2 C 300.0 372.1, 300.0 365.4, 300.0 358.9 C 300.0 352.4, 300.0 346.2, 300.0 340.2 C 300.0 334.1, 300.0 328.4, 300.0 322.8 C 300.0 317.2, 300.0 311.8, 300.0 306.5 C 300.0 301.2, 300.0 296.1, 300.0 291.1 C 300.0 286.1, 300.0 281.3, 300.0 276.5 C 300.0 271.7, 300.0 267.0, 300.0 262.4 C 300.0 257.8, 300.0 253.3, 300.0 248.8 C 300.0 244.3, 300.0 239.9, 300.0 235.5 C 300.0 231.1, 300.0 226.8, 300.0 222.5 C 300.0 218.2, 300.0 213.9, 300.0 209.6 C 300.0 205.3, 300.0 201.1, 300.0 196.8 C 300.0 192.5, 300.0 188.3, 300.0 184.0 C 300.0 179.7, 300.0 175.4, 300.0 171.0 C 300.0 166.7, 300.0 162.3, 300.0 157.9 C 300.0 153.5, 300.0 149.0, 300.0 144.5 C 300.0 139.9, 300.0 135.3, 300.0 130.6 C 300.0 125.9, 300.0 121.2, 300.0 116.3 C 300.0 111.4, 300.0 106.4, 300.0 101.3 C 300.0 96.1, 300.0 90.9, 300.0 85.5 C 300.0 80.0, 300.0 74.5, 300.0 68.7 C 300.0 62.9, 300.0 56.9, 300.0 50.7 C 300.0 44.4, 300.0 38.0, 300.0 31.2 C 300.0 24.4, 300.0 17.4, 300.0 9.9 C 300.0 2.4, 300.0 -5.4, 300.0 -13.7 C 300.0 -22.0, 300.0 -30.7, 300.0 -40.1 C 300.0 -49.5, 300.0 -59.3, 300.0 -70.1 C 300.0 -80.8, 300.0 -92.1, 300.0 -104.7 C 300.0 -117.2, 300.0 -130.4, 300.0 -145.3 C 300.0 -160.3, 300.0 -176.0, 300.0 -194.2 C 300.0 -212.4, 300.0 -231.6, 300.0 -254.4 C 300.0 -277.2, 300.0 -301.4, 300.0 -331.1 C 300.0 -360.9, 300.0 -392.2, 300.0 -432.9 C 300.0 -473.7, 300.0 -515.8, 300.0 -575.7 C 300.0 -635.6, 300.0 -694.4, 300.0 -792.4 C 300.0 -890.3, 300.0 -969.8, 300.0 -1163.3 C 300.0 -1356.9, 300.0 -1340.8, 300.0 -1953.4 C 300.0 -2566.0, 300.0 -7718.6, 300.0 -4838.8 C 300.0 -1959.1, 300.0 13981.9, 300.0 15325.0 C 300.0 16668.1, 300.0 5462.2, 300.0 3219.9 C 300.0 977.6, 300.0 2182.8, 300.0 1871.1 C 300.0 1559.4, 300.0 1482.9, 300.0 1349.6 C 300.0 1216.4, 300.0 1146.9, 300.0 1071.6 C 300.0 996.2, 300.0 946.7, 300.0 897.8 C 300.0 848.8, 300.0 812.7, 300.0 778.1 C 300.0 743.6, 300.0 716.2, 300.0 690.3 C 300.0 664.4, 300.0 642.9, 300.0 622.6 C 300.0 602.3, 300.0 585.0, 300.0 568.6 C 300.0 552.2, 300.0 537.8, 300.0 524.1 Z"/>
    <path d="M 300.0 486.7 C 315.9 477.8, 329.7 467.2, 342.0 456.6 C 354.3 446.1, 364.6 434.6, 373.8 423.4 C 382.9 412.1, 390.4 400.5, 397.0 389.2 C 403.6 377.9, 408.7 366.5, 413.2 355.4 C 417.6 344.3, 420.9 333.3, 423.7 322.6 C 426.4 312.0, 428.2 301.5, 429.5 291.3 C 430.8 281.1, 431.4 271.1, 431.5 261.4 C 431.6 251.6, 431.1 242.2, 430.2 232.9 C 429.3 223.7, 427.9 214.6, 426.1 205.8 C 424.3 197.0, 422.0 188.4, 419.4 180.0 C 416.7 171.5, 413.6 163.3, 410.2 155.3 C 406.7 147.2, 402.9 139.4, 398.6 131.7 C 394.4 124.0, 389.7 116.4, 384.6 109.1 C 379.5 101.8, 374.0 94.6, 368.0 87.6 C 362.0 80.7, 355.6 73.8, 348.6 67.3 C 341.6 60.8, 334.2 54.4, 326.1 48.4 C 318.0 42.4, 309.3 36.5, 300.0 31.2 C 290.7 25.8, 280.7 20.7, 270.0 16.3 C 259.2 11.9, 247.8 7.8, 235.5 4.6 C 223.2 1.5, 210.1 -1.2, 196.2 -2.6 C 182.2 -3.9, 167.3 -4.7, 151.8 -3.5 C 136.2 -2.4, 119.6 -0.3, 102.7 4.3 C 85.8 8.9, 67.8 14.9, 50.3 24.0 C 32.8 33.1, 14.4 44.3, -2.2 58.9 C -18.9 73.5, -35.9 91.1, -49.4 111.7 C -62.9 132.3, -75.6 156.6, -83.1 182.3 C -90.6 208.1, -95.4 237.8, -94.4 266.2 C -93.4 294.7, -87.6 325.8, -77.1 353.1 C -66.6 380.3, -50.1 407.7, -31.5 429.7 C -12.9 451.7, 11.0 471.0, 34.5 485.2 C 57.9 499.5, 84.6 509.1, 109.2 515.2 C 133.8 521.2, 159.3 522.4, 182.2 521.6 C 205.1 520.7, 227.1 515.9, 246.7 510.0 Z"/>
    <path d="M 300.0 486.7 C 295.1 478.3, 290.9 470.2, 286.9 462.4 C 283.0 454.6, 279.6 447.1, 276.4 439.8 C 273.2 432.5, 270.5 425.5, 267.9 418.7 C 265.4 411.9, 263.1 405.4, 261.1 399.1 C 259.0 392.7, 257.2 386.6, 255.5 380.7 C 253.9 374.7, 252.4 368.9, 251.1 363.3 C 249.8 357.7, 248.6 352.3, 247.6 347.0 C 246.5 341.6, 245.6 336.5, 244.8 331.4 C 244.0 326.4, 243.3 321.5, 242.6 316.7 C 242.0 311.8, 241.5 307.1, 241.1 302.5 C 240.6 297.9, 240.3 293.4, 240.0 288.9 C 239.7 284.5, 239.4 280.1, 239.3 275.8 C 239.1 271.5, 239.0 267.3, 239.0 263.1 C 239.0 258.9, 239.0 254.8, 239.0 250.7 C 239.1 246.7, 239.2 242.7, 239.4 238.7 C 239.6 234.7, 239.8 230.8, 240.1 226.9 C 240.4 222.9, 240.7 219.1, 241.1 215.2 C 241.4 211.3, 241.9 207.5, 242.3 203.7 C 242.8 199.9, 243.3 196.1, 243.9 192.3 C 244.4 188.5, 245.0 184.7, 245.7 180.9 C 246.4 177.1, 247.1 173.3, 247.8 169.5 C 248.6 165.7, 249.4 161.9, 250.3 158.1 C 251.1 154.3, 252.1 150.5, 253.0 146.6 C 254.0 142.7, 255.1 138.9, 256.2 135.0 C 257.3 131.1, 258.4 127.1, 259.7 123.2 C 260.9 119.2, 262.2 115.2, 263.6 111.1 C 265.0 107.1, 266.5 103.0, 268.0 98.8 C 269.6 94.7, 271.2 90.5, 273.0 86.2 C 274.8 81.9, 276.6 77.6, 278.6 73.2 C 280.6 68.8, 282.6 64.3, 284.9 59.7 C 287.1 55.1, 289.4 50.5, 292.0 45.7 C 294.5 41.0, 297.1 36.1, 300.0 31.2 C 302.9 26.2, 305.9 21.2, 309.2 16.0 C 312.5 10.8, 315.9 5.5, 319.7 0.1 C 323.4 -5.4, 327.4 -10.9, 331.8 -16.6 C 336.1 -22.3, 340.7 -28.2, 345.8 -34.2 C 350.9 -40.2, 356.2 -46.3, 362.2 -52.6 C 368.1 -58.9, 374.4 -65.4, 381.4 -71.9 C 388.4 -78.5, 395.9 -85.3, 404.2 -92.1 C 412.6 -99.0, 421.5 -106.0, 431.5 -113.0 C 441.5 -120.0, 452.2 -127.1, 464.3 -134.1 C 476.4 -141.1, 489.3 -148.2, 504.0 -154.8 C 518.7 -161.5, 534.5 -168.2, 552.5 -173.9 C 570.4 -179.5, 589.7 -185.2, 611.5 -189.0 C 633.3 -192.7, 657.0 -196.2, 683.3 -196.4 C 709.5 -196.7, 738.3 -196.1, 769.0 -190.4 C 799.7 -184.8, 833.6 -177.2, 867.6 -162.4 C 901.5 -147.6, 939.1 -128.9, 972.8 -101.6 C 1006.6 -74.3, 1043.0 -40.1, 1070.1 1.3 C 1097.3 42.6, 1123.2 93.9, 1135.9 146.5 C 1148.6 199.0, 1153.5 261.1, 1146.4 316.6 C 1139.2 372.0, 1119.0 431.2, 1093.3 479.2 C 1067.5 527.1, 1029.0 570.8, 991.7 604.2 C 954.4 637.6, 909.6 661.8, 869.3 679.6 C 828.9 697.4, 786.9 705.8, 749.5 711.1 C 712.1 716.5, 676.7 714.6, 645.0 711.8 C 613.2 708.9, 584.8 701.5, 559.2 693.9 C 533.5 686.4, 511.2 676.3, 490.9 666.5 C 470.6 656.6, 453.3 645.6, 437.4 635.0 C 421.5 624.3, 408.0 613.3, 395.5 602.6 C 383.1 592.0, 372.5 581.3, 362.7 571.0 C 352.9 560.8, 344.5 550.7, 336.8 541.0 C 329.1 531.3, 322.5 521.9, 316.3 512.9 Z"/>
    <path d="M 300.0 486.7 C 307.2 474.5, 312.9 462.9, 318.1 451.9 C 323.4 440.9, 327.6 430.5, 331.4 420.6 C 335.2 410.6, 338.3 401.3, 341.1 392.2 C 343.9 383.2, 346.1 374.7, 348.2 366.4 C 350.2 358.1, 351.8 350.3, 353.3 342.7 C 354.7 335.0, 355.9 327.7, 356.8 320.6 C 357.8 313.5, 358.6 306.7, 359.2 300.0 C 359.8 293.3, 360.2 286.9, 360.5 280.5 C 360.8 274.2, 361.0 268.0, 361.0 262.0 C 361.1 255.9, 361.0 250.0, 360.8 244.1 C 360.6 238.3, 360.3 232.5, 359.9 226.9 C 359.5 221.2, 359.0 215.5, 358.4 210.0 C 357.8 204.4, 357.1 198.8, 356.3 193.3 C 355.5 187.8, 354.6 182.3, 353.6 176.8 C 352.5 171.2, 351.4 165.7, 350.2 160.2 C 349.0 154.6, 347.6 149.1, 346.1 143.4 C 344.7 137.8, 343.1 132.2, 341.3 126.4 C 339.6 120.6, 337.7 114.8, 335.6 108.9 C 333.5 103.0, 331.3 97.0, 328.9 90.8 C 326.4 84.7, 323.8 78.4, 320.9 72.0 C 318.0 65.5, 314.9 59.0, 311.4 52.2 C 307.9 45.4, 304.2 38.4, 300.0 31.2 C 295.8 24.0, 291.3 16.6, 286.2 8.9 C 281.1 1.1, 275.7 -6.8, 269.4 -15.1 C 263.1 -23.3, 256.4 -31.9, 248.5 -40.8 C 240.7 -49.7, 232.3 -58.9, 222.3 -68.4 C 212.4 -77.9, 201.6 -87.8, 188.8 -97.8 C 176.0 -107.8, 162.1 -118.2, 145.3 -128.4 C 128.5 -138.5, 110.2 -149.2, 87.9 -158.5 C 65.5 -167.8, 41.0 -177.8, 11.3 -184.1 C -18.4 -190.5, -51.7 -197.5, -90.5 -196.6 C -129.3 -195.6, -174.3 -194.4, -221.4 -178.5 C -268.4 -162.7, -325.5 -141.8, -372.8 -101.6 C -420.2 -61.4, -476.3 -4.5, -505.5 62.6 C -534.7 129.7, -555.6 223.0, -548.1 300.9 C -540.6 378.8, -503.3 468.6, -460.6 530.1 C -417.9 591.5, -348.8 638.9, -291.9 669.5 C -235.0 700.1, -171.1 708.7, -119.2 713.8 C -67.3 718.9, -20.6 708.8, 19.3 700.0 C 59.1 691.2, 91.3 675.2, 119.8 660.9 C 148.3 646.6, 170.4 629.8, 190.4 614.4 C 210.5 598.9, 225.9 583.0, 239.9 568.2 C 254.0 553.4, 264.9 539.0, 274.9 525.4 Z"/>
    <path d="M 300.0 486.7 C 292.7 482.5, 285.9 478.1, 279.4 473.5 C 272.9 468.9, 266.8 464.1, 261.0 459.2 C 255.3 454.4, 249.9 449.3, 244.9 444.3 C 239.9 439.2, 235.2 434.1, 230.8 428.9 C 226.4 423.7, 222.3 418.5, 218.5 413.2 C 214.7 408.0, 211.2 402.7, 208.0 397.5 C 204.7 392.3, 201.7 387.0, 199.0 381.8 C 196.2 376.6, 193.7 371.4, 191.4 366.3 C 189.1 361.1, 187.0 356.0, 185.1 350.9 C 183.2 345.8, 181.5 340.8, 180.0 335.8 C 178.4 330.8, 177.1 325.8, 175.9 320.9 C 174.7 316.0, 173.7 311.2, 172.8 306.4 C 171.9 301.6, 171.2 296.8, 170.6 292.1 C 170.0 287.4, 169.5 282.8, 169.2 278.2 C 168.9 273.6, 168.7 269.0, 168.6 264.5 C 168.5 260.0, 168.5 255.6, 168.6 251.2 C 168.7 246.8, 169.0 242.5, 169.3 238.2 C 169.7 233.9, 170.1 229.7, 170.6 225.5 C 171.2 221.3, 171.8 217.1, 172.5 213.0 C 173.3 208.9, 174.1 204.8, 175.0 200.8 C 175.9 196.8, 176.9 192.8, 178.0 188.9 C 179.1 185.0, 180.3 181.1, 181.5 177.2 C 182.8 173.4, 184.1 169.6, 185.5 165.8 C 187.0 162.0, 188.5 158.3, 190.1 154.6 C 191.7 150.9, 193.4 147.3, 195.1 143.6 C 196.9 140.0, 198.7 136.5, 200.7 132.9 C 202.6 129.4, 204.6 125.9, 206.7 122.4 C 208.8 118.9, 211.0 115.5, 213.3 112.1 C 215.6 108.7, 218.0 105.3, 220.5 102.0 C 222.9 98.7, 225.5 95.4, 228.1 92.2 C 230.8 88.9, 233.6 85.7, 236.4 82.6 C 239.3 79.4, 242.2 76.3, 245.3 73.2 C 248.4 70.1, 251.5 67.1, 254.8 64.1 C 258.1 61.2, 261.5 58.2, 265.0 55.4 C 268.5 52.5, 272.2 49.7, 275.9 46.9 C 279.7 44.2, 283.5 41.5, 287.6 38.8 C 291.6 36.2, 295.7 33.7, 300.0 31.2 C 304.3 28.7, 308.7 26.3, 313.3 24.0 C 317.9 21.7, 322.6 19.5, 327.4 17.4 C 332.3 15.3, 337.3 13.3, 342.5 11.5 C 347.7 9.6, 353.1 7.8, 358.6 6.3 C 364.1 4.7, 369.8 3.2, 375.7 1.9 C 381.6 0.7, 387.6 -0.4, 393.8 -1.3 C 400.0 -2.2, 406.4 -2.9, 413.0 -3.4 C 419.6 -3.8, 426.4 -4.1, 433.3 -4.0 C 440.2 -4.0, 447.3 -3.7, 454.6 -3.0 C 461.9 -2.4, 469.3 -1.4, 476.9 -0.1 C 484.5 1.3, 492.2 2.9, 500.1 5.1 C 507.9 7.2, 515.9 9.7, 523.9 12.7 C 532.0 15.8, 540.1 19.2, 548.3 23.3 C 556.4 27.3, 564.6 31.9, 572.7 37.1 C 580.7 42.2, 588.8 47.9, 596.7 54.3 C 604.6 60.7, 612.4 67.7, 619.8 75.3 C 627.2 83.0, 634.5 91.3, 641.2 100.3 C 648.0 109.2, 654.4 118.9, 660.2 129.1 C 666.0 139.3, 671.3 150.3, 675.8 161.6 C 680.3 173.0, 684.3 185.1, 687.2 197.4 C 690.1 209.8, 692.3 222.7, 693.5 235.8 C 694.6 248.8, 694.8 262.3, 694.0 275.7 C 693.1 289.1, 691.2 302.7, 688.2 316.0 C 685.3 329.3, 681.2 342.6, 676.2 355.3 C 671.2 368.1, 665.0 380.6, 658.1 392.4 C 651.2 404.2, 643.2 415.6, 634.6 426.0 C 626.0 436.5, 616.5 446.3, 606.6 455.2 C 596.7 464.0, 586.1 472.1, 575.2 479.2 C 564.4 486.3, 553.0 492.5, 541.7 497.7 C 530.3 503.0, 518.6 507.3, 507.1 510.8 C 495.6 514.3, 483.9 516.9, 472.5 518.7 C 461.2 520.6, 449.8 521.5, 438.8 521.8 C 427.9 522.2, 417.1 521.7, 406.7 520.8 C 396.3 519.8, 386.2 518.2, 376.5 516.1 C 366.8 514.1, 357.4 511.4, 348.5 508.5 C 339.6 505.6, 331.1 502.2, 323.0 498.5 Z"/>
    <path d="M 389.9 49.7 C 387.7 54.7, 385.1 59.5, 382.4 63.8 C 379.6 68.2, 376.5 72.1, 373.3 75.8 C 370.2 79.4, 366.7 82.7, 363.3 85.7 C 359.8 88.6, 356.1 91.3, 352.5 93.6 C 348.8 96.0, 345.0 98.0, 341.2 99.8 C 337.4 101.6, 333.5 103.0, 329.6 104.3 C 325.7 105.5, 321.8 106.5, 317.8 107.2 C 313.9 108.0, 309.9 108.4, 306.0 108.7 C 302.0 108.9, 298.0 108.9, 294.0 108.7 C 290.1 108.4, 286.1 108.0, 282.2 107.2 C 278.2 106.5, 274.3 105.5, 270.4 104.3 C 266.5 103.0, 262.6 101.6, 258.8 99.8 C 255.0 98.0, 251.2 96.0, 247.5 93.6 C 243.9 91.3, 240.2 88.6, 236.7 85.7 C 233.3 82.7, 229.8 79.4, 226.7 75.8 C 223.5 72.1, 220.4 68.2, 217.6 63.8 C 214.9 59.5, 212.3 54.7, 210.1 49.7 C 208.0 44.6, 206.1 39.1, 204.8 33.3 C 203.5 27.5, 202.5 21.3, 202.3 14.9 C 202.1 8.5, 202.4 1.6, 203.6 -5.2 C 204.8 -12.0, 206.7 -19.2, 209.6 -26.1 C 212.5 -33.0, 216.2 -40.1, 221.0 -46.5 C 225.7 -52.9, 231.5 -59.3, 238.1 -64.6 C 244.6 -69.9, 252.3 -74.8, 260.4 -78.3 C 268.4 -81.8, 277.5 -84.5, 286.3 -85.8 C 295.2 -87.0, 304.8 -87.0, 313.7 -85.8 C 322.5 -84.5, 331.6 -81.8, 339.6 -78.3 C 347.7 -74.8, 355.4 -69.9, 361.9 -64.6 C 368.5 -59.3, 374.3 -52.9, 379.0 -46.5 C 383.8 -40.1, 387.5 -33.0, 390.4 -26.1 C 393.3 -19.2, 395.2 -12.0, 396.4 -5.2 C 397.6 1.6, 397.9 8.5, 397.7 14.9 C 397.5 21.3, 396.5 27.5, 395.2 33.3 Z"/>
    <path d="M 158.2 437.2 C 163.6 430.3, 169.3 424.4, 174.9 418.9 C 180.6 413.5, 186.4 408.8, 192.1 404.5 C 197.8 400.2, 203.5 396.5, 209.2 393.2 C 214.9 389.9, 220.6 387.1, 226.2 384.5 C 231.8 382.0, 237.4 379.9, 242.9 378.0 C 248.5 376.2, 253.9 374.7, 259.4 373.4 C 264.9 372.2, 270.3 371.2, 275.7 370.4 C 281.1 369.7, 286.5 369.2, 291.9 369.0 C 297.3 368.7, 302.7 368.7, 308.1 369.0 C 313.5 369.2, 318.9 369.7, 324.3 370.4 C 329.7 371.2, 335.1 372.2, 340.6 373.4 C 346.1 374.7, 351.5 376.2, 357.1 378.0 C 362.6 379.9, 368.2 382.0, 373.8 384.5 C 379.4 387.1, 385.1 389.9, 390.8 393.2 C 396.5 396.5, 402.2 400.2, 407.9 404.5 C 413.6 408.8, 419.4 413.5, 425.1 418.9 C 430.7 424.4, 436.4 430.3, 441.8 437.2 C 447.2 444.1, 452.6 451.6, 457.4 460.2 C 462.2 468.8, 466.9 478.3, 470.6 488.9 C 474.2 499.6, 477.6 511.2, 479.3 524.1 C 480.9 536.9, 482.0 551.1, 480.5 565.9 C 478.9 580.8, 476.1 597.2, 469.8 613.2 C 463.5 629.1, 454.9 646.5, 442.7 661.5 C 430.5 676.5, 414.7 692.1, 396.7 703.2 C 378.6 714.2, 356.3 723.7, 334.4 727.8 C 312.6 731.9, 287.4 731.9, 265.6 727.8 C 243.7 723.7, 221.4 714.2, 203.3 703.2 C 185.3 692.1, 169.5 676.5, 157.3 661.5 C 145.1 646.5, 136.5 629.1, 130.2 613.2 C 123.9 597.2, 121.1 580.8, 119.5 565.9 C 118.0 551.1, 119.1 536.9, 120.7 524.1 C 122.4 511.2, 125.8 499.6, 129.4 488.9 C 133.1 478.3, 137.8 468.8, 142.6 460.2 Z"/>
    <path d="M 468.7 105.9 C 462.8 111.4, 456.9 116.1, 451.1 120.5 C 445.3 124.9, 439.5 128.8, 433.9 132.3 C 428.3 135.9, 422.8 139.0, 417.3 141.9 C 411.9 144.8, 406.6 147.3, 401.3 149.7 C 396.1 152.0, 390.9 154.0, 385.9 155.9 C 380.8 157.8, 375.8 159.4, 370.8 160.8 C 365.9 162.3, 361.0 163.6, 356.2 164.7 C 351.4 165.8, 346.6 166.7, 341.9 167.5 C 337.1 168.3, 332.5 169.0, 327.8 169.5 C 323.1 170.0, 318.5 170.4, 313.9 170.7 C 309.2 170.9, 304.6 171.0, 300.0 171.0 C 295.4 171.0, 290.8 170.9, 286.1 170.7 C 281.5 170.4, 276.9 170.0, 272.2 169.5 C 267.5 169.0, 262.9 168.3, 258.1 167.5 C 253.4 166.7, 248.6 165.8, 243.8 164.7 C 239.0 163.6, 234.1 162.3, 229.2 160.8 C 224.2 159.4, 219.2 157.8, 214.1 155.9 C 209.1 154.0, 203.9 152.0, 198.7 149.7 C 193.4 147.3, 188.1 144.8, 182.7 141.9 C 177.2 139.0, 171.7 135.9, 166.1 132.3 C 160.5 128.8, 154.7 124.9, 148.9 120.5 C 143.1 116.1, 137.2 111.4, 131.3 105.9 C 125.4 100.5, 119.3 94.6, 113.3 87.9 C 107.4 81.2, 101.3 73.9, 95.5 65.6 C 89.6 57.2, 83.7 48.2, 78.4 37.9 C 73.0 27.6, 67.6 16.4, 63.3 3.7 C 59.0 -9.0, 54.8 -22.8, 52.4 -38.2 C 50.1 -53.6, 48.1 -70.5, 49.1 -88.6 C 50.0 -106.8, 52.0 -126.8, 58.0 -147.1 C 64.0 -167.3, 72.3 -189.6, 85.2 -210.1 C 98.2 -230.6, 114.9 -252.5, 135.7 -269.9 C 156.5 -287.3, 182.7 -304.3, 210.0 -314.5 C 237.4 -324.7, 270.0 -331.1, 300.0 -331.1 C 330.0 -331.1, 362.6 -324.7, 390.0 -314.5 C 417.3 -304.3, 443.5 -287.3, 464.3 -269.9 C 485.1 -252.5, 501.8 -230.6, 514.8 -210.1 C 527.7 -189.6, 536.0 -167.3, 542.0 -147.1 C 548.0 -126.8, 550.0 -106.8, 550.9 -88.6 C 551.9 -70.5, 549.9 -53.6, 547.6 -38.2 C 545.2 -22.8, 541.0 -9.0, 536.7 3.7 C 532.4 16.4, 527.0 27.6, 521.6 37.9 C 516.3 48.2, 510.4 57.2, 504.5 65.6 C 498.7 73.9, 492.6 81.2, 486.7 87.9 Z"/>
    <path d="M 81.2 322.0 C 91.2 319.1, 100.5 316.7, 109.4 314.5 C 118.4 312.2, 126.7 310.3, 134.8 308.6 C 142.8 306.9, 150.4 305.4, 157.7 304.0 C 165.1 302.7, 172.0 301.5, 178.8 300.5 C 185.6 299.4, 192.1 298.5, 198.5 297.7 C 204.8 296.8, 211.0 296.1, 217.0 295.5 C 223.0 294.9, 228.8 294.3, 234.6 293.8 C 240.3 293.4, 245.9 293.0, 251.5 292.6 C 257.0 292.3, 262.5 292.0, 267.9 291.8 C 273.3 291.6, 278.7 291.4, 284.0 291.3 C 289.4 291.2, 294.7 291.1, 300.0 291.1 C 305.3 291.1, 310.6 291.2, 316.0 291.3 C 321.3 291.4, 326.7 291.6, 332.1 291.8 C 337.5 292.0, 343.0 292.3, 348.5 292.6 C 354.1 293.0, 359.7 293.4, 365.4 293.8 C 371.2 294.3, 377.0 294.9, 383.0 295.5 C 389.0 296.1, 395.2 296.8, 401.5 297.7 C 407.9 298.5, 414.4 299.4, 421.2 300.5 C 428.0 301.5, 434.9 302.7, 442.3 304.0 C 449.6 305.4, 457.2 306.9, 465.2 308.6 C 473.3 310.3, 481.6 312.2, 490.6 314.5 C 499.5 316.7, 508.8 319.1, 518.8 322.0 C 528.9 325.0, 539.4 328.1, 550.9 332.0 C 562.4 335.9, 574.5 340.1, 587.9 345.5 C 601.3 350.8, 615.4 356.5, 631.3 364.0 C 647.2 371.4, 664.0 379.4, 683.1 390.3 C 702.3 401.1, 722.7 412.6, 746.1 429.1 C 769.5 445.6, 794.8 462.9, 823.4 489.4 C 851.9 515.9, 884.2 543.1, 917.3 588.1 C 950.3 633.2, 992.9 680.0, 1021.7 759.8 C 1050.5 839.7, 1104.0 935.8, 1089.8 1067.3 C 1075.7 1198.7, 1068.3 1414.8, 936.7 1548.8 C 805.0 1682.7, 512.2 1871.1, 300.0 1871.1 C 87.8 1871.1, -205.0 1682.7, -336.7 1548.8 C -468.3 1414.8, -475.7 1198.7, -489.8 1067.3 C -504.0 935.8, -450.5 839.7, -421.7 759.8 C -392.9 680.0, -350.3 633.2, -317.3 588.1 C -284.2 543.1, -251.9 515.9, -223.4 489.4 C -194.8 462.9, -169.5 445.6, -146.1 429.1 C -122.7 412.6, -102.3 401.1, -83.1 390.3 C -64.0 379.4, -47.2 371.4, -31.3 364.0 C -15.4 356.5, -1.3 350.8, 12.1 345.5 C 25.5 340.1, 37.6 335.9, 49.1 332.0 Z"/>
    <path d="M 520.0 200.0 C 511.7 202.2, 504.0 204.2, 496.5 205.9 C 489.0 207.7, 481.9 209.3, 475.1 210.7 C 468.2 212.2, 461.7 213.5, 455.4 214.6 C 449.1 215.8, 443.0 216.9, 437.1 217.8 C 431.3 218.8, 425.6 219.6, 420.1 220.4 C 414.5 221.2, 409.2 221.9, 404.0 222.6 C 398.7 223.2, 393.7 223.8, 388.7 224.3 C 383.7 224.9, 378.8 225.3, 374.0 225.7 C 369.2 226.2, 364.5 226.5, 359.9 226.9 C 355.3 227.2, 350.7 227.5, 346.2 227.7 C 341.7 228.0, 337.2 228.2, 332.8 228.3 C 328.3 228.5, 324.0 228.6, 319.6 228.7 C 315.2 228.8, 310.9 228.9, 306.5 228.9 C 302.2 229.0, 297.8 229.0, 293.5 228.9 C 289.1 228.9, 284.8 228.8, 280.4 228.7 C 276.0 228.6, 271.7 228.5, 267.2 228.3 C 262.8 228.2, 258.3 228.0, 253.8 227.7 C 249.3 227.5, 244.7 227.2, 240.1 226.9 C 235.5 226.5, 230.8 226.2, 226.0 225.7 C 221.2 225.3, 216.3 224.9, 211.3 224.3 C 206.3 223.8, 201.3 223.2, 196.0 222.6 C 190.8 221.9, 185.5 221.2, 179.9 220.4 C 174.4 219.6, 168.7 218.8, 162.9 217.8 C 157.0 216.9, 150.9 215.8, 144.6 214.6 C 138.3 213.5, 131.8 212.2, 124.9 210.7 C 118.1 209.3, 111.0 207.7, 103.5 205.9 C 96.0 204.2, 88.3 202.2, 80.0 200.0 C 71.7 197.8, 63.1 195.4, 53.9 192.6 C 44.7 189.7, 35.0 186.7, 24.6 183.1 C 14.1 179.5, 3.2 175.6, -8.7 170.9 C -20.7 166.2, -33.2 161.2, -47.0 154.9 C -60.9 148.6, -75.5 141.9, -91.7 133.3 C -108.0 124.7, -125.2 115.6, -144.5 103.5 C -163.9 91.4, -184.5 78.5, -207.6 60.7 C -230.8 43.0, -255.8 24.3, -283.3 -2.8 C -310.9 -29.9, -341.6 -58.4, -372.8 -101.6 C -404.1 -144.9, -441.9 -190.9, -470.6 -262.4 C -499.4 -333.9, -543.0 -416.0, -545.2 -530.7 C -547.4 -645.3, -564.8 -806.8, -483.7 -950.3 C -402.5 -1093.8, -248.5 -1318.3, -58.2 -1391.9 C 132.1 -1465.5, 467.9 -1465.5, 658.2 -1391.9 C 848.5 -1318.3, 1002.5 -1093.8, 1083.7 -950.3 C 1164.8 -806.8, 1147.4 -645.3, 1145.2 -530.7 C 1143.0 -416.0, 1099.4 -333.9, 1070.6 -262.4 C 1041.9 -190.9, 1004.1 -144.9, 972.8 -101.6 C 941.6 -58.4, 910.9 -29.9, 883.3 -2.8 C 855.8 24.3, 830.8 43.0, 807.6 60.7 C 784.5 78.5, 763.9 91.4, 744.5 103.5 C 725.2 115.6, 708.0 124.7, 691.7 133.3 C 675.5 141.9, 660.9 148.6, 647.0 154.9 C 633.2 161.2, 620.7 166.2, 608.7 170.9 C 596.8 175.6, 585.9 179.5, 575.4 183.1 C 565.0 186.7, 555.3 189.7, 546.1 192.6 Z"/>
    <circle cx="300" cy="200" r="220"/>
  </g>
  <text x="300" y="240" font-family="'Latin Modern Roman', 'CMU Serif', Georgia, serif" font-size="160" font-weight="500" fill="#b87333" text-anchor="middle">GCU</text>
</svg>